<svg id="Layer_1" data-name="Layer 1" xmlns="http://www.w3.org/2000/svg" viewBox="0 0 1152 700"><defs><style>.cls-1{fill:#1c1c1c;}.cls-2{fill:#424242;}.cls-3{fill:#303030;}.cls-4{fill:#d34452;}.cls-17,.cls-5{fill:#fff;}.cls-6{fill:#262626;}.cls-10,.cls-13,.cls-14,.cls-7,.cls-8,.cls-9{fill:none;stroke:#6b6b6b;stroke-linejoin:round;}.cls-13,.cls-7,.cls-9{stroke-linecap:round;}.cls-7{stroke-width:2.38px;}.cls-10,.cls-14,.cls-8{stroke-linecap:square;}.cls-8{stroke-width:0.87px;}.cls-9{stroke-width:3.1px;}.cls-10{stroke-width:1.14px;}.cls-11{fill:#ef8b33;}.cls-12{fill:#8632ad;}.cls-13{stroke-width:2.82px;}.cls-14{stroke-width:1.03px;}.cls-15{fill:#3b9322;}.cls-16{fill:#38a396;}.cls-17{isolation:isolate;font-size:20.36px;font-family:Montserrat-Regular, Montserrat;}.cls-18{letter-spacing:-0.01em;}.cls-19{letter-spacing:-0.06em;}.cls-20{letter-spacing:0em;}.cls-21{letter-spacing:0.02em;}</style></defs><title>end</title><g id="maintext"><path class="cls-1" d="M198.8,221.6l.5,40.8L149,263l2.2,164.2-41.3.5-2.2-164.2-50.5.7-.5-40.8Z"/><path class="cls-1" d="M257.7,220.8l1.1,82,68.5-.9-1.1-82,41.1-.5,2.7,205-41.1.5-1.1-82.2-68.5.9,1.1,82.2-41.1.5-2.7-205Z"/><path class="cls-1" d="M516.3,216.8l.5,41.1L434.4,259l.5,41.3,61.8-.8.5,41.1-61.8.8.5,41.3,82.4-1.1.5,40.9-123.6,1.6-2.7-205.8Z"/><path class="cls-1" d="M734.1,213.9l.5,41.1-82.4,1.1.5,41.3,61.8-.8.5,41.1-61.8.8.5,41.3,82.4-1.1.5,40.9L613,421.2l-2.7-205.8Z"/><path class="cls-1" d="M876.8,325.9,875.3,212l41.3-.5,2.8,209.7L794.3,305.1l1.5,113.8-41.2.5-2.8-209.6Z"/><path class="cls-1" d="M996.6,210.9c32.2-.4,57.6,12,75.3,29.1,18.6,18.2,28,42.2,28.4,72.2s-8.4,54.2-26.5,72.7q-29.85,30.45-74.5,31l-54.6.7L942,211.7l54.6-.7Zm.5,40.9-13.4.2,1.6,123.1,13.7-.2c37-.5,60.7-25.3,60.2-62.4C1058.8,275.8,1034,251.3,997.1,251.8Z"/></g><rect class="cls-2" x="-6.6" y="-12.5" width="1162.9" height="722.6"/><g id="Cassette"><path class="cls-3" d="M1219,568.3,933.5,529.7a13.62,13.62,0,0,0-15.3,11.7L894.7,715.3a13.62,13.62,0,0,0,11.7,15.3l285.5,38.6a13.62,13.62,0,0,0,15.3-11.7l23.5-173.9A13.62,13.62,0,0,0,1219,568.3Z"/><path class="cls-4" d="M1207.7,581.9,942.1,546a8,8,0,0,0-9,6.9l-15.9,118a8,8,0,0,0,6.9,9l265.6,35.9a8,8,0,0,0,9-6.9l15.9-118A8.08,8.08,0,0,0,1207.7,581.9Z"/><path class="cls-5" d="M1174.1,636.8,959.8,607.9A17.6,17.6,0,0,0,940,623l-2.5,18.2A17.6,17.6,0,0,0,952.6,661l214.3,28.9a17.6,17.6,0,0,0,19.8-15.1l2.5-18.2A17.51,17.51,0,0,0,1174.1,636.8Z"/><path class="cls-6" d="M1090.6,632.1l-53.5-7.2a3.48,3.48,0,0,0-3.9,3l-4.8,35.5a3.48,3.48,0,0,0,3,3.9l53.5,7.2a3.48,3.48,0,0,0,3.9-3l4.8-35.5A3.49,3.49,0,0,0,1090.6,632.1Z"/><path class="cls-6" d="M985.5,658a21,21,0,1,0-12.7-26.9A21.09,21.09,0,0,0,985.5,658Z"/><path class="cls-6" d="M1124.9,676.9a21,21,0,1,0-12.7-26.9A21.09,21.09,0,0,0,1124.9,676.9Z"/><path class="cls-7" d="M948.5,728.2l26.7-31.9L1128.1,717l11.6,37.1Z"/><path class="cls-8" d="M953,568.4,1188.8,599"/><path class="cls-8" d="M949.6,584.3l235.8,30.6"/><path class="cls-8" d="M1047.9,632.9l-3.9,28.5"/><path class="cls-8" d="M1056.6,634.1l-3.9,28.5"/><path class="cls-8" d="M1066.5,635.5l-3.8,28.5"/><path class="cls-8" d="M1077.6,637l-3.8,28.5"/><path class="cls-3" d="M108.1-195.7-198.3,21.1a17.67,17.67,0,0,0-4.2,24.7l132,186.6a17.67,17.67,0,0,0,24.7,4.2L260.7,19.8a17.67,17.67,0,0,0,4.2-24.7l-132-186.6A18,18,0,0,0,108.1-195.7Z"/><path class="cls-4" d="M109.4-172.6-175.7,29.1a10.41,10.41,0,0,0-2.5,14.5l89.6,126.7a10.41,10.41,0,0,0,14.5,2.5L211.1-29a10.41,10.41,0,0,0,2.5-14.5L124-170.2A10.52,10.52,0,0,0,109.4-172.6Z"/><path class="cls-5" d="M126.2-90.5l-230,162.7a22.94,22.94,0,0,0-5.5,32l13.8,19.6a22.94,22.94,0,0,0,32,5.5l230-162.7a22.94,22.94,0,0,0,5.5-32L158.2-85A22.93,22.93,0,0,0,126.2-90.5Z"/><path class="cls-6" d="M42.3-20.8-15.1,19.8a4.58,4.58,0,0,0-1.1,6.3l27,38.1a4.58,4.58,0,0,0,6.3,1.1L74.5,24.7a4.58,4.58,0,0,0,1.1-6.3l-27-38.1A4.43,4.43,0,0,0,42.3-20.8Z"/><path class="cls-9" d="M-7.8,197l-2.9-54.2L153.5,26.6l44.1,25.1Z"/><path class="cls-10" d="M-145.4,40.6,106.5-139.6"/><path class="cls-10" d="M-134.4,58.8,117.5-121.4"/><path class="cls-10" d="M2.4,17.9,24,48.5"/><path class="cls-10" d="M11.7,11.4,33.4,42"/><path class="cls-10" d="M22.3,3.8,44,34.4"/><path class="cls-10" d="M34.3-4.6,56,25.9"/><path class="cls-3" d="M-136.1,567.9l34.7,225.9a17.66,17.66,0,0,0,20.2,14.8l371-57a17.66,17.66,0,0,0,14.8-20.2L270,505.5a17.66,17.66,0,0,0-20.2-14.8l-371,57A17.79,17.79,0,0,0-136.1,567.9Z"/><path class="cls-11" d="M-114.9,577.1l23.6,153.4a10.41,10.41,0,0,0,11.9,8.7l345.2-53.1a10.41,10.41,0,0,0,8.7-11.9L250.9,520.8a10.41,10.41,0,0,0-11.9-8.7l-345.2,53.1A10.55,10.55,0,0,0-114.9,577.1Z"/><path class="cls-5" d="M-80.4,662.1l3.6,23.7A23,23,0,0,0-50.6,705l278.4-42.8A23,23,0,0,0,247,636l-3.6-23.7a23,23,0,0,0-26.2-19.2L-61.2,635.9A23.08,23.08,0,0,0-80.4,662.1Z"/><path class="cls-6" d="M43.8,632.8l7.1,46.1a4.56,4.56,0,0,0,5.1,3.8L125.5,672a4.56,4.56,0,0,0,3.8-5.1l-7.1-46.1a4.56,4.56,0,0,0-5.1-3.8L47.6,627.7A4.56,4.56,0,0,0,43.8,632.8Z"/><path class="cls-6" d="M201,623.7A27.38,27.38,0,1,0,185.1,659,27.4,27.4,0,0,0,201,623.7Z"/><path class="cls-6" d="M19.9,651.6a27.4,27.4,0,0,0-35.3-15.9A27.4,27.4,0,0,0-31.3,671,27.4,27.4,0,0,0,4,686.9,27.45,27.45,0,0,0,19.9,651.6Z"/><path class="cls-10" d="M-81.2,587l306.4-45.5"/><path class="cls-10" d="M-76.3,607.7l306.4-45.5"/><path class="cls-10" d="M109,664.9l-5.7-37"/><path class="cls-10" d="M97.7,666.6l-5.7-37"/><path class="cls-10" d="M84.8,668.6l-5.7-37.1"/><path class="cls-10" d="M70.3,670.9l-5.7-37.1"/><path class="cls-3" d="M1114.2,257.9l31.6,205.5a16.21,16.21,0,0,0,18.4,13.5L1501.7,425a16.21,16.21,0,0,0,13.5-18.4l-31.6-205.5a16.21,16.21,0,0,0-18.4-13.5l-337.5,51.9A16.14,16.14,0,0,0,1114.2,257.9Z"/><path class="cls-11" d="M1133.5,266.2l21.4,139.5a9.42,9.42,0,0,0,10.8,7.9l314-48.3a9.42,9.42,0,0,0,7.9-10.8L1466.2,215a9.42,9.42,0,0,0-10.8-7.9l-314,48.3A9.42,9.42,0,0,0,1133.5,266.2Z"/><path class="cls-3" d="M398.4-66.8,430,138.7a16.21,16.21,0,0,0,18.4,13.5l337.5-51.9a16.21,16.21,0,0,0,13.5-18.4L767.8-123.6a16.21,16.21,0,0,0-18.4-13.5L411.9-85.2A16.09,16.09,0,0,0,398.4-66.8Z"/><path class="cls-12" d="M417.7-58.5,439.1,81a9.42,9.42,0,0,0,10.8,7.9l314-48.3a9.42,9.42,0,0,0,7.9-10.8L750.4-109.7a9.42,9.42,0,0,0-10.8-7.9l-314,48.3A9.42,9.42,0,0,0,417.7-58.5Z"/><path class="cls-5" d="M449,18.9l3.3,21.5a21,21,0,0,0,23.8,17.5L729.5,19A21,21,0,0,0,747-4.8l-3.3-21.5a21,21,0,0,0-23.8-17.5L466.5-5A21,21,0,0,0,449,18.9Z"/><path class="cls-6" d="M562-7.8l6.4,42a4,4,0,0,0,4.7,3.4l63.3-9.7a4,4,0,0,0,3.4-4.7l-6.4-42a4,4,0,0,0-4.7-3.4l-63.3,9.7A4.22,4.22,0,0,0,562-7.8Z"/><path class="cls-6" d="M705-16.1a25,25,0,0,0-32.1-14.5A25,25,0,0,0,658.4,1.5,25,25,0,0,0,690.5,16,24.9,24.9,0,0,0,705-16.1Z"/><path class="cls-6" d="M540.2,9.3a24.91,24.91,0,1,0-14.5,32.1A24.85,24.85,0,0,0,540.2,9.3Z"/><path class="cls-13" d="M509.7,133.1l13-44.2L703.5,61.1l32.4,37.3Z"/><path class="cls-14" d="M621.3,21.4l-5.2-33.7"/><path class="cls-14" d="M611,23l-5.2-33.7"/><path class="cls-14" d="M599.3,24.8,594.1-8.9"/><path class="cls-14" d="M586.1,26.8,580.9-6.9"/><path class="cls-3" d="M421.3,902.3l164.4,127.2a16.1,16.1,0,0,0,22.6-2.9L817.2,756.5a16.1,16.1,0,0,0-2.9-22.6L649.9,606.7a16.1,16.1,0,0,0-22.6,2.9L418.4,879.7A16,16,0,0,0,421.3,902.3Z"/><path class="cls-15" d="M441,895.1l111.6,86.4a9.53,9.53,0,0,0,13.3-1.7L760.3,728.5a9.53,9.53,0,0,0-1.7-13.3L647,628.8a9.53,9.53,0,0,0-13.3,1.7L439.3,881.8A9.44,9.44,0,0,0,441,895.1Z"/><path class="cls-5" d="M517,929.5l17.2,13.3a20.86,20.86,0,0,0,29.3-3.7L720.3,736.4a20.86,20.86,0,0,0-3.7-29.3l-17.2-13.3a20.86,20.86,0,0,0-29.3,3.7L513.3,900.2A20.86,20.86,0,0,0,517,929.5Z"/><path class="cls-14" d="M469.4,880.5,643,658.5"/><path class="cls-14" d="M485.5,891.1l173.6-222"/><path class="cls-3" d="M914.3,53.8,1078.7,181a16.1,16.1,0,0,0,22.6-2.9L1310.2-92a16.1,16.1,0,0,0-2.9-22.6L1142.9-241.8a16.1,16.1,0,0,0-22.6,2.9L911.4,31.2A16,16,0,0,0,914.3,53.8Z"/><path class="cls-16" d="M934,46.5l111.6,86.4a9.53,9.53,0,0,0,13.3-1.7l194.4-251.3a9.53,9.53,0,0,0-1.7-13.3L1140-219.8a9.53,9.53,0,0,0-13.3,1.7L932.3,33.2A9.43,9.43,0,0,0,934,46.5Z"/><path class="cls-5" d="M1010,81l17.2,13.3a20.86,20.86,0,0,0,29.3-3.7l156.8-202.7a20.86,20.86,0,0,0-3.7-29.3l-17.2-13.3a20.86,20.86,0,0,0-29.3,3.7L1006.3,51.7A20.87,20.87,0,0,0,1010,81Z"/><path class="cls-6" d="M1073.6-16.1l33.6,26a4,4,0,0,0,5.7-.7l39.2-50.6a4,4,0,0,0-.7-5.7l-33.6-26a4,4,0,0,0-5.7.7l-39.2,50.6A4,4,0,0,0,1073.6-16.1Z"/><path class="cls-6" d="M1069.5,11.2a25,25,0,1,0,11.6,33.3A24.83,24.83,0,0,0,1069.5,11.2Z"/><path class="cls-13" d="M1132.7,122.1l-21.1-41L1223.5-63.6l49.1,4.7Z"/><path class="cls-14" d="M962.4,31.9,1136-190"/><path class="cls-14" d="M978.5,42.6l173.6-222"/></g><text class="cls-17" transform="translate(530.34 535.9)">Cli<tspan class="cls-18" x="25.59" y="0">c</tspan><tspan x="36.88" y="0">k </tspan><tspan class="cls-19" x="54.45" y="0">T</tspan><tspan class="cls-20" x="65.02" y="0">o Resta</tspan><tspan class="cls-21" x="140.35" y="0">r</tspan><tspan x="148.82" y="0">t</tspan></text></svg>