<svg width="156" height="16" viewBox="0 0 156 16" fill="none" xmlns="http://www.w3.org/2000/svg">
<g clip-path="url(#clip0)">
<path d="M0 8C0 3.8 3.2 0.800003 7.5 0.800003C9.6 0.800003 11.4 1.5 12.7 2.9L11.7 3.9C10.5 2.7 9.1 2.2 7.5 2.2C4.1 2.2 1.5 4.7 1.5 8.1C1.5 11.5 4.1 14 7.5 14C9.1 14 10.6 13.5 11.7 12.3L12.7 13.3C11.4 14.7 9.6 15.4 7.5 15.4C3.2 15.2 0 12.1 0 8Z" fill="white"/>
<path d="M15.6 0H17V15.1H15.6V0Z" fill="white"/>
<path d="M20.7 1C20.7 0.5 21.2 0 21.8 0C22.4 0 22.9 0.4 22.9 1C22.9 1.6 22.5 2.1 21.8 2.1C21.2 2.1 20.7 1.6 20.7 1ZM21.1 4.4H22.5V15.1H21.1V4.4Z" fill="white"/>
<path d="M25.5 9.7C25.5 6.5 27.8 4.3 31 4.3C32.8 4.3 34.3 5 35.2 6.4L34.1 7.1C33.4 6 32.2 5.5 31 5.5C28.7 5.5 26.9 7.2 26.9 9.7C26.9 12.2 28.6 13.9 31 13.9C32.2 13.9 33.4 13.4 34.1 12.3L35.2 13C34.3 14.4 32.8 15.1 31 15.1C27.8 15.2 25.5 12.9 25.5 9.7Z" fill="white"/>
<path d="M41.8 9.7L39.3 12V15.1H37.9V0H39.3V10.2L45.7 4.4H47.5L42.9 8.8L47.9 15.1H46.1L41.8 9.7Z" fill="white"/>
<path d="M58.5 2.19999H53.5V0.899994H65V2.19999H60V15.1H58.5V2.19999Z" fill="white"/>
<path d="M64.9 9.69999C64.9 6.49999 67.2 4.29999 70.4 4.29999C73.6 4.29999 75.8 6.59999 75.8 9.69999C75.8 12.8 73.5 15.2 70.4 15.2C67.3 15.2 64.9 12.9 64.9 9.69999ZM74.3 9.69999C74.3 7.19999 72.6 5.49999 70.3 5.49999C68 5.49999 66.3 7.19999 66.3 9.69999C66.3 12.2 68 13.9 70.3 13.9C72.6 13.9 74.3 12.3 74.3 9.69999Z" fill="white"/>
<path d="M94.1 15.1L90.8 10.5C90.4 10.5 90.1 10.6 89.7 10.6H85.9V15.1H84.4V0.899994H89.7C93.3 0.899994 95.5 2.69999 95.5 5.79999C95.5 7.99999 94.3 9.59999 92.2 10.3L95.7 15.2H94.1V15.1V15.1ZM94 5.69999C94 3.39999 92.5 2.09999 89.6 2.09999H85.8V9.19999H89.6C92.5 9.29999 94 7.99999 94 5.69999Z" fill="white"/>
<path d="M108.1 10.2H99.1C99.3 12.4 101 13.9 103.3 13.9C104.6 13.9 105.8 13.4 106.6 12.5L107.4 13.4C106.4 14.5 105 15.2 103.3 15.2C100 15.2 97.7 12.9 97.7 9.69999C97.7 6.49999 99.9 4.29999 102.9 4.29999C105.9 4.29999 108.1 6.49999 108.1 9.69999C108.1 9.89999 108.1 9.99999 108.1 10.2ZM99.2 9.09999H106.8C106.6 6.99999 105.1 5.49999 103 5.49999C100.9 5.59999 99.3 6.99999 99.2 9.09999Z" fill="white"/>
<path d="M109.6 13.9L110.3 12.8C111.2 13.5 112.6 14 114.1 14C116.1 14 117 13.3 117 12.2C117 9.39999 110.1 11.6 110.1 7.39999C110.1 5.59999 111.6 4.29999 114.3 4.29999C115.7 4.29999 117.2 4.69999 118.1 5.29999L117.5 6.49999C116.6 5.79999 115.4 5.59999 114.3 5.59999C112.4 5.59999 111.5 6.39999 111.5 7.39999C111.5 10.3 118.4 8.09999 118.4 12.2C118.4 14.1 116.8 15.3 114 15.3C112.2 15.2 110.5 14.6 109.6 13.9Z" fill="white"/>
<path d="M126.7 14.4C126.1 14.9 125.3 15.2 124.4 15.2C122.4 15.2 121.3 14.1 121.3 12.1V5.59999H119.4V4.39999H121.3V2.09999H122.7V4.39999H126V5.59999H122.7V12C122.7 13.3 123.4 14 124.6 14C125.2 14 125.8 13.8 126.2 13.5L126.7 14.4Z" fill="white"/>
<path d="M137.4 8.49999V15.1H136V13.4C135.3 14.5 134.1 15.2 132.3 15.2C129.9 15.2 128.4 13.9 128.4 12.1C128.4 10.5 129.5 9.09999 132.5 9.09999H135.9V8.39999C135.9 6.59999 134.9 5.59999 132.9 5.59999C131.5 5.59999 130.2 6.09999 129.3 6.89999L128.6 5.79999C129.7 4.89999 131.3 4.39999 133 4.39999C135.8 4.29999 137.4 5.69999 137.4 8.49999ZM136 11.9V10.1H132.6C130.5 10.1 129.9 10.9 129.9 12C129.9 13.2 130.9 14 132.6 14C134.2 14.1 135.4 13.3 136 11.9Z" fill="white"/>
<path d="M146.7 4.3V5.7C146.6 5.7 146.5 5.7 146.4 5.7C144.2 5.7 142.8 7.1 142.8 9.6V15.1H141.4V4.4H142.8V6.5C143.4 5.1 144.7 4.3 146.7 4.3Z" fill="white"/>
<path d="M155.4 14.4C154.8 14.9 154 15.2 153.1 15.2C151.1 15.2 150 14.1 150 12.1V5.60001H148.1V4.40001H150V2.10001H151.4V4.40001H154.7V5.60001H151.4V12C151.4 13.3 152.1 14 153.3 14C153.9 14 154.5 13.8 154.9 13.5L155.4 14.4Z" fill="white"/>
</g>
<defs>
<clipPath id="clip0">
<rect width="155.4" height="15.4" fill="white"/>
</clipPath>
</defs>
</svg>
